<?xml version="1.0" standalone="no"?>
<!DOCTYPE svg PUBLIC "-//W3C//DTD SVG 20010904//EN"
 "http://www.w3.org/TR/2001/REC-SVG-20010904/DTD/svg10.dtd">
<svg version="1.0" xmlns="http://www.w3.org/2000/svg"
 width="1280.000000pt" height="1280.000000pt" viewBox="0 0 1280.000000 1280.000000"
 preserveAspectRatio="xMidYMid meet">
<g transform="translate(0.000000,1280.000000) scale(0.100000,-0.100000)"
fill="#000000" stroke="none">
<path d="M3205 9590 l-3190 -3190 3193 -3193 3192 -3192 3192 3192 3193 3193
-3190 3190 c-1754 1754 -3192 3190 -3195 3190 -3 0 -1441 -1436 -3195 -3190z
m5895 -495 l2695 -2695 -2698 -2698 -2697 -2697 -2697 2697 -2698 2698 2695
2695 c1482 1482 2697 2695 2700 2695 3 0 1218 -1213 2700 -2695z"/>
<path d="M6310 9703 c-267 -29 -498 -129 -641 -279 -93 -99 -139 -201 -139
-311 0 -90 456 -3143 479 -3202 62 -163 196 -274 366 -301 200 -32 404 78 490
263 34 73 38 99 265 1633 189 1270 231 1573 228 1635 -15 277 -343 515 -769
559 -97 10 -205 11 -279 3z"/>
<path d="M6280 5144 c-30 -8 -93 -33 -140 -56 -68 -33 -102 -58 -171 -127 -93
-93 -145 -175 -186 -294 -37 -106 -44 -318 -15 -435 64 -250 242 -444 477
-518 377 -119 770 112 876 514 28 107 28 287 0 395 -38 144 -132 291 -249 389
-58 48 -187 113 -267 133 -75 19 -251 19 -325 -1z"/>
</g>
</svg>
